<?xml version="1.0" encoding="utf-8"?>
<!-- Generator: Adobe Illustrator 19.2.1, SVG Export Plug-In . SVG Version: 6.00 Build 0)  -->
<svg version="1.1" id="Layer_1" xmlns="http://www.w3.org/2000/svg" xmlns:xlink="http://www.w3.org/1999/xlink" x="0px" y="0px"
	 viewBox="0 0 69 92" style="enable-background:new 0 0 69 92;" xml:space="preserve">
<rect y="86.25" style="fill:#0301E8;" width="5.75" height="5.75"/>
<rect x="5.75" y="86.25" style="fill:#0301E8;" width="5.75" height="5.75"/>
<rect x="11.5" y="86.25" style="fill:#0301E8;" width="5.75" height="5.75"/>
<rect x="17.25" y="86.25" style="fill:#0301E8;" width="5.75" height="5.75"/>
<rect x="46" y="86.25" style="fill:#0301E8;" width="5.75" height="5.75"/>
<rect x="51.75" y="86.25" style="fill:#0301E8;" width="5.75" height="5.75"/>
<rect x="57.5" y="86.25" style="fill:#0301E8;" width="5.75" height="5.75"/>
<rect x="63.25" y="86.25" style="fill:#0301E8;" width="5.75" height="5.75"/>
<rect x="5.75" y="80.5" style="fill:#0301E8;" width="5.75" height="5.75"/>
<rect x="11.5" y="80.5" style="fill:#0301E8;" width="5.75" height="5.75"/>
<rect x="17.25" y="80.5" style="fill:#0301E8;" width="5.75" height="5.75"/>
<rect x="11.5" y="74.75" style="fill:#F40502;" width="5.75" height="5.75"/>
<rect x="17.25" y="74.75" style="fill:#F40502;" width="5.75" height="5.75"/>
<rect x="0" y="69" style="fill:#F7A46C;" width="5.75" height="5.75"/>
<rect x="5.75" y="69" style="fill:#F7A46C;" width="5.75" height="5.75"/>
<rect x="57.5" y="69" style="fill:#F7A46C;" width="5.75" height="5.75"/>
<rect x="63.25" y="69" style="fill:#F7A46C;" width="5.75" height="5.75"/>
<rect x="23" y="74.75" style="fill:#F40502;" width="5.75" height="5.75"/>
<rect x="11.5" y="69" style="fill:#F40502;" width="5.75" height="5.75"/>
<rect x="0" y="63.25" style="fill:#F7A46C;" width="5.75" height="5.75"/>
<rect x="5.75" y="63.25" style="fill:#F7A46C;" width="5.75" height="5.75"/>
<rect x="11.5" y="63.25" style="fill:#F7A46C;" width="5.75" height="5.75"/>
<rect x="0" y="57.5" style="fill:#F7A46C;" width="5.75" height="5.75"/>
<rect x="5.75" y="57.5" style="fill:#F7A46C;" width="5.75" height="5.75"/>
<rect x="11.5" y="57.5" style="fill:#0301E8;" width="5.75" height="5.75"/>
<rect x="17.25" y="69" style="fill:#F40502;" width="5.75" height="5.75"/>
<rect x="23" y="69" style="fill:#F40502;" width="5.75" height="5.75"/>
<rect x="40.25" y="74.75" style="fill:#F40502;" width="5.75" height="5.75"/>
<rect x="46" y="74.75" style="fill:#F40502;" width="5.75" height="5.75"/>
<rect x="51.75" y="74.75" style="fill:#F40502;" width="5.75" height="5.75"/>
<rect x="40.25" y="69" style="fill:#F40502;" width="5.75" height="5.75"/>
<rect x="46" y="69" style="fill:#F40502;" width="5.75" height="5.75"/>
<rect x="28.75" y="69" style="fill:#F40502;" width="5.75" height="5.75"/>
<rect x="34.5" y="69" style="fill:#F40502;" width="5.75" height="5.75"/>
<rect x="17.25" y="63.25" style="fill:#F40502;" width="5.75" height="5.75"/>
<rect x="17.25" y="57.5" style="fill:#F40502;" width="5.75" height="5.75"/>
<rect x="23" y="63.25" style="fill:#F40502;" width="5.75" height="5.75"/>
<rect x="23" y="57.5" style="fill:#F7A46C;" width="5.75" height="5.75"/>
<rect x="40.25" y="63.25" style="fill:#F40502;" width="5.75" height="5.75"/>
<rect x="40.25" y="57.5" style="fill:#F7A46C;" width="5.75" height="5.75"/>
<rect x="46" y="63.25" style="fill:#F40502;" width="5.75" height="5.75"/>
<rect x="46" y="57.5" style="fill:#F40502;" width="5.75" height="5.75"/>
<rect x="28.75" y="63.25" style="fill:#F40502;" width="5.75" height="5.75"/>
<rect x="28.75" y="57.5" style="fill:#F40502;" width="5.75" height="5.75"/>
<rect x="34.5" y="63.25" style="fill:#F40502;" width="5.75" height="5.75"/>
<rect x="34.5" y="57.5" style="fill:#F40502;" width="5.75" height="5.75"/>
<rect x="51.75" y="69" style="fill:#F40502;" width="5.75" height="5.75"/>
<rect x="57.5" y="63.25" style="fill:#F7A46C;" width="5.75" height="5.75"/>
<rect x="63.25" y="63.25" style="fill:#F7A46C;" width="5.75" height="5.75"/>
<rect x="51.75" y="63.25" style="fill:#F7A46C;" width="5.75" height="5.75"/>
<rect x="57.5" y="57.5" style="fill:#F7A46C;" width="5.75" height="5.75"/>
<rect x="63.25" y="57.5" style="fill:#F7A46C;" width="5.75" height="5.75"/>
<rect x="51.75" y="57.5" style="fill:#0301E8;" width="5.75" height="5.75"/>
<rect x="0" y="51.75" style="fill:#0301E8;" width="5.75" height="5.75"/>
<rect x="5.75" y="51.75" style="fill:#0301E8;" width="5.75" height="5.75"/>
<rect x="11.5" y="51.75" style="fill:#0301E8;" width="5.75" height="5.75"/>
<rect x="17.25" y="51.75" style="fill:#F40502;" width="5.75" height="5.75"/>
<rect x="23" y="51.75" style="fill:#F40502;" width="5.75" height="5.75"/>
<rect x="40.25" y="51.75" style="fill:#F40502;" width="5.75" height="5.75"/>
<rect x="46" y="51.75" style="fill:#F40502;" width="5.75" height="5.75"/>
<rect x="28.75" y="51.75" style="fill:#F40502;" width="5.75" height="5.75"/>
<rect x="34.5" y="51.75" style="fill:#F40502;" width="5.75" height="5.75"/>
<rect x="57.5" y="51.75" style="fill:#0301E8;" width="5.75" height="5.75"/>
<rect x="63.25" y="51.75" style="fill:#0301E8;" width="5.75" height="5.75"/>
<rect x="51.75" y="51.75" style="fill:#0301E8;" width="5.75" height="5.75"/>
<rect x="5.75" y="46" style="fill:#0301E8;" width="5.75" height="5.75"/>
<rect x="11.5" y="46" style="fill:#0301E8;" width="5.75" height="5.75"/>
<rect x="17.25" y="46" style="fill:#0301E8;" width="5.75" height="5.75"/>
<rect x="23" y="46" style="fill:#F40502;" width="5.75" height="5.75"/>
<rect x="40.25" y="46" style="fill:#F40502;" width="5.75" height="5.75"/>
<rect x="46" y="46" style="fill:#0301E8;" width="5.75" height="5.75"/>
<rect x="28.75" y="46" style="fill:#0301E8;" width="5.75" height="5.75"/>
<rect x="34.5" y="46" style="fill:#0301E8;" width="5.75" height="5.75"/>
<rect x="57.5" y="46" style="fill:#0301E8;" width="5.75" height="5.75"/>
<rect x="51.75" y="46" style="fill:#0301E8;" width="5.75" height="5.75"/>
<rect x="11.5" y="40.25" style="fill:#0301E8;" width="5.75" height="5.75"/>
<rect x="17.25" y="40.25" style="fill:#0301E8;" width="5.75" height="5.75"/>
<rect x="23" y="40.25" style="fill:#F40502;" width="5.75" height="5.75"/>
<rect x="40.25" y="40.25" style="fill:#0301E8;" width="5.75" height="5.75"/>
<rect x="28.75" y="40.25" style="fill:#0301E8;" width="5.75" height="5.75"/>
<rect x="34.5" y="40.25" style="fill:#0301E8;" width="5.75" height="5.75"/>
<rect x="17.25" y="34.5" style="fill:#F7A46C;" width="5.75" height="5.75"/>
<rect x="23" y="34.5" style="fill:#F7A46C;" width="5.75" height="5.75"/>
<rect x="40.25" y="34.5" style="fill:#F7A46C;" width="5.75" height="5.75"/>
<rect x="28.75" y="34.5" style="fill:#F7A46C;" width="5.75" height="5.75"/>
<rect x="34.5" y="34.5" style="fill:#F7A46C;" width="5.75" height="5.75"/>
<rect x="51.75" y="34.5" style="fill:#F7A46C;" width="5.75" height="5.75"/>
<rect x="46" y="34.5" style="fill:#F7A46C;" width="5.75" height="5.75"/>
<rect x="17.25" y="28.75" style="fill:#F7A46C;" width="5.75" height="5.75"/>
<rect x="23" y="28.75" style="fill:#F7A46C;" width="5.75" height="5.75"/>
<rect x="5.75" y="28.75" style="fill:#0301E8;" width="5.75" height="5.75"/>
<rect x="11.5" y="28.75" style="fill:#0301E8;" width="5.75" height="5.75"/>
<rect x="40.25" y="28.75" style="fill:#0301E8;" width="5.75" height="5.75"/>
<rect x="28.75" y="28.75" style="fill:#F7A46C;" width="5.75" height="5.75"/>
<rect x="34.5" y="28.75" style="fill:#F7A46C;" width="5.75" height="5.75"/>
<rect x="51.75" y="28.75" style="fill:#0301E8;" width="5.75" height="5.75"/>
<rect x="57.5" y="28.75" style="fill:#0301E8;" width="5.75" height="5.75"/>
<rect x="46" y="28.75" style="fill:#0301E8;" width="5.75" height="5.75"/>
<rect x="17.25" y="23" style="fill:#0301E8;" width="5.75" height="5.75"/>
<rect x="23" y="23" style="fill:#0301E8;" width="5.75" height="5.75"/>
<rect x="5.75" y="23" style="fill:#0301E8;" width="5.75" height="5.75"/>
<rect x="11.5" y="23" style="fill:#F7A46C;" width="5.75" height="5.75"/>
<rect x="40.25" y="23" style="fill:#F7A46C;" width="5.75" height="5.75"/>
<rect x="28.75" y="23" style="fill:#F7A46C;" width="5.75" height="5.75"/>
<rect x="34.5" y="23" style="fill:#F7A46C;" width="5.75" height="5.75"/>
<rect x="51.75" y="23" style="fill:#F7A46C;" width="5.75" height="5.75"/>
<rect x="57.5" y="23" style="fill:#F7A46C;" width="5.75" height="5.75"/>
<rect x="63.25" y="23" style="fill:#F7A46C;" width="5.75" height="5.75"/>
<rect x="46" y="23" style="fill:#0301E8;" width="5.75" height="5.75"/>
<rect x="17.25" y="17.25" style="fill:#0301E8;" width="5.75" height="5.75"/>
<rect x="23" y="17.25" style="fill:#F7A46C;" width="5.75" height="5.75"/>
<rect x="5.75" y="17.25" style="fill:#0301E8;" width="5.75" height="5.75"/>
<rect x="11.5" y="17.25" style="fill:#F7A46C;" width="5.75" height="5.75"/>
<rect x="40.25" y="17.25" style="fill:#0301E8;" width="5.75" height="5.75"/>
<rect x="28.75" y="17.25" style="fill:#F7A46C;" width="5.75" height="5.75"/>
<rect x="34.5" y="17.25" style="fill:#F7A46C;" width="5.75" height="5.75"/>
<rect x="51.75" y="17.25" style="fill:#F7A46C;" width="5.75" height="5.75"/>
<rect x="57.5" y="17.25" style="fill:#F7A46C;" width="5.75" height="5.75"/>
<rect x="46" y="17.25" style="fill:#F7A46C;" width="5.75" height="5.75"/>
<rect x="17.25" y="11.5" style="fill:#0301E8;" width="5.75" height="5.75"/>
<rect x="23" y="11.5" style="fill:#0301E8;" width="5.75" height="5.75"/>
<rect x="11.5" y="11.5" style="fill:#0301E8;" width="5.75" height="5.75"/>
<rect x="40.25" y="11.5" style="fill:#0301E8;" width="5.75" height="5.75"/>
<rect x="28.75" y="11.5" style="fill:#F7A46C;" width="5.75" height="5.75"/>
<rect x="34.5" y="11.5" style="fill:#F7A46C;" width="5.75" height="5.75"/>
<rect x="46" y="11.5" style="fill:#F7A46C;" width="5.75" height="5.75"/>
<rect x="17.25" y="5.75" style="fill:#F40502;" width="5.75" height="5.75"/>
<rect x="23" y="5.75" style="fill:#F40502;" width="5.75" height="5.75"/>
<rect x="11.5" y="5.75" style="fill:#F40502;" width="5.75" height="5.75"/>
<rect x="40.25" y="5.75" style="fill:#F40502;" width="5.75" height="5.75"/>
<rect x="28.75" y="5.75" style="fill:#F40502;" width="5.75" height="5.75"/>
<rect x="34.5" y="5.75" style="fill:#F40502;" width="5.75" height="5.75"/>
<rect x="46" y="5.75" style="fill:#F40502;" width="5.75" height="5.75"/>
<rect x="17.25" style="fill:#F40502;" width="5.75" height="5.75"/>
<rect x="23" style="fill:#F40502;" width="5.75" height="5.75"/>
<rect x="40.25" style="fill:#F40502;" width="5.75" height="5.75"/>
<rect x="28.75" style="fill:#F40502;" width="5.75" height="5.75"/>
<rect x="34.5" style="fill:#F40502;" width="5.75" height="5.75"/>
<rect x="51.75" y="5.75" style="fill:#F40502;" width="5.75" height="5.75"/>
<rect x="57.5" y="5.75" style="fill:#F40502;" width="5.75" height="5.75"/>
<rect x="46" y="80.5" style="fill:#0301E8;" width="5.75" height="5.75"/>
<rect x="51.75" y="80.5" style="fill:#0301E8;" width="5.75" height="5.75"/>
<rect x="57.5" y="80.5" style="fill:#0301E8;" width="5.75" height="5.75"/>
</svg>
