<?xml version="1.0" encoding="utf-8"?>
<!-- Generator: Adobe Illustrator 19.2.1, SVG Export Plug-In . SVG Version: 6.00 Build 0)  -->
<svg version="1.1" id="Layer_1" xmlns="http://www.w3.org/2000/svg" xmlns:xlink="http://www.w3.org/1999/xlink" x="0px" y="0px"
	 viewBox="0 0 86.25 126.5" style="enable-background:new 0 0 86.25 126.5;" xml:space="preserve">
<rect x="69" y="17.25" width="5.75" height="5.75"/>
<rect x="63.25" y="17.25" style="fill:#FFFFFF;" width="5.75" height="5.75"/>
<rect x="57.5" y="17.25" style="fill:#FFFFFF;" width="5.75" height="5.75"/>
<rect x="51.75" y="17.25" style="fill:#FFA044;" width="5.75" height="5.75"/>
<rect x="46" y="17.25" style="fill:#FFFFFF;" width="5.75" height="5.75"/>
<rect x="40.25" y="17.25" style="fill:#FFA044;" width="5.75" height="5.75"/>
<rect x="34.5" y="17.25" style="fill:#FFA044;" width="5.75" height="5.75"/>
<rect x="74.75" y="17.25" style="fill:#FFFFFF;" width="5.75" height="5.75"/>
<rect x="69" y="23" style="fill:#FFFFFF;" width="5.75" height="5.75"/>
<rect x="63.25" y="23" style="fill:#FFFFFF;" width="5.75" height="5.75"/>
<rect x="57.5" y="23" style="fill:#FFFFFF;" width="5.75" height="5.75"/>
<rect x="51.75" y="23" style="fill:#FFFFFF;" width="5.75" height="5.75"/>
<rect x="46" y="23" style="fill:#FFA044;" width="5.75" height="5.75"/>
<rect x="40.25" y="23" style="fill:#FFA044;" width="5.75" height="5.75"/>
<rect x="74.75" y="23" style="fill:#FFFFFF;" width="5.75" height="5.75"/>
<rect x="63.25" y="28.75" style="fill:#FFFFFF;" width="5.75" height="5.75"/>
<rect x="57.5" y="28.75" style="fill:#FFFFFF;" width="5.75" height="5.75"/>
<rect x="51.75" y="28.75" style="fill:#FFFFFF;" width="5.75" height="5.75"/>
<rect x="46" y="28.75" style="fill:#FFFFFF;" width="5.75" height="5.75"/>
<rect x="40.25" y="28.75" style="fill:#FFA044;" width="5.75" height="5.75"/>
<rect x="34.5" y="28.75" style="fill:#FFA044;" width="5.75" height="5.75"/>
<rect x="57.5" y="34.5" style="fill:#FFFFFF;" width="5.75" height="5.75"/>
<rect x="51.75" y="34.5" style="fill:#FFFFFF;" width="5.75" height="5.75"/>
<rect x="46" y="34.5" style="fill:#FFFFFF;" width="5.75" height="5.75"/>
<rect x="40.25" y="34.5" style="fill:#F978F7;" width="5.75" height="5.75"/>
<rect x="34.5" y="34.5" style="fill:#F978F7;" width="5.75" height="5.75"/>
<rect x="28.75" y="28.75" style="fill:#FFA044;" width="5.75" height="5.75"/>
<rect x="17.25" y="28.75" style="fill:#FFA044;" width="5.75" height="5.75"/>
<rect x="23" y="28.75" style="fill:#FFA044;" width="5.75" height="5.75"/>
<rect x="28.75" y="34.5" style="fill:#FFA044;" width="5.75" height="5.75"/>
<rect x="23" y="34.5" style="fill:#FFA044;" width="5.75" height="5.75"/>
<rect x="17.25" y="34.5" style="fill:#FFA044;" width="5.75" height="5.75"/>
<rect x="5.75" y="34.5" style="fill:#FFA044;" width="5.75" height="5.75"/>
<rect x="11.5" y="34.5" style="fill:#FFA044;" width="5.75" height="5.75"/>
<rect x="63.25" y="40.25" style="fill:#F978F7;" width="5.75" height="5.75"/>
<rect x="57.5" y="40.25" style="fill:#FFFFFF;" width="5.75" height="5.75"/>
<rect x="51.75" y="40.25" style="fill:#FFFFFF;" width="5.75" height="5.75"/>
<rect x="46" y="40.25" style="fill:#F978F7;" width="5.75" height="5.75"/>
<rect x="40.25" y="40.25" style="fill:#F978F7;" width="5.75" height="5.75"/>
<rect x="34.5" y="40.25" style="fill:#F978F7;" width="5.75" height="5.75"/>
<rect x="63.25" y="46" style="fill:#F978F7;" width="5.75" height="5.75"/>
<rect x="57.5" y="46" style="fill:#F978F7;" width="5.75" height="5.75"/>
<rect x="51.75" y="46" style="fill:#F978F7;" width="5.75" height="5.75"/>
<rect x="46" y="46" style="fill:#F978F7;" width="5.75" height="5.75"/>
<rect x="40.25" y="46" style="fill:#F978F7;" width="5.75" height="5.75"/>
<rect x="34.5" y="46" style="fill:#F978F7;" width="5.75" height="5.75"/>
<rect x="57.5" y="51.75" style="fill:#F978F7;" width="5.75" height="5.75"/>
<rect x="51.75" y="51.75" style="fill:#F978F7;" width="5.75" height="5.75"/>
<rect x="46" y="51.75" style="fill:#F978F7;" width="5.75" height="5.75"/>
<rect x="40.25" y="51.75" style="fill:#F978F7;" width="5.75" height="5.75"/>
<rect x="57.5" y="57.5" style="fill:#F978F7;" width="5.75" height="5.75"/>
<rect x="51.75" y="57.5" style="fill:#F978F7;" width="5.75" height="5.75"/>
<rect x="69" y="57.5" style="fill:#F978F7;" width="5.75" height="5.75"/>
<rect x="63.25" y="57.5" style="fill:#F978F7;" width="5.75" height="5.75"/>
<rect x="80.5" y="57.5" style="fill:#FEFFFD;" width="5.75" height="5.75"/>
<rect x="74.75" y="57.5" style="fill:#FEFFFD;" width="5.75" height="5.75"/>
<rect x="57.5" y="63.25" style="fill:#F978F7;" width="5.75" height="5.75"/>
<rect x="69" y="63.25" style="fill:#F978F7;" width="5.75" height="5.75"/>
<rect x="63.25" y="63.25" style="fill:#F978F7;" width="5.75" height="5.75"/>
<rect x="57.5" y="69" style="fill:#F978F7;" width="5.75" height="5.75"/>
<rect x="63.25" y="69" style="fill:#F978F7;" width="5.75" height="5.75"/>
<rect x="46" y="69" style="fill:#F978F7;" width="5.75" height="5.75"/>
<rect x="51.75" y="69" style="fill:#F978F7;" width="5.75" height="5.75"/>
<rect x="34.5" y="69" style="fill:#F978F7;" width="5.75" height="5.75"/>
<rect x="40.25" y="69" style="fill:#F978F7;" width="5.75" height="5.75"/>
<rect x="28.75" y="69" style="fill:#F978F7;" width="5.75" height="5.75"/>
<rect x="57.5" y="74.75" style="fill:#F978F7;" width="5.75" height="5.75"/>
<rect x="63.25" y="74.75" style="fill:#F978F7;" width="5.75" height="5.75"/>
<rect x="69" y="74.75" style="fill:#FEFFFD;" width="5.75" height="5.75"/>
<rect x="74.75" y="74.75" style="fill:#FEFFFD;" width="5.75" height="5.75"/>
<rect x="46" y="74.75" style="fill:#F978F7;" width="5.75" height="5.75"/>
<rect x="51.75" y="74.75" style="fill:#F978F7;" width="5.75" height="5.75"/>
<rect x="34.5" y="74.75" style="fill:#F978F7;" width="5.75" height="5.75"/>
<rect x="40.25" y="74.75" style="fill:#F978F7;" width="5.75" height="5.75"/>
<rect x="28.75" y="74.75" style="fill:#F978F7;" width="5.75" height="5.75"/>
<rect x="23" y="74.75" style="fill:#F978F7;" width="5.75" height="5.75"/>
<rect x="17.25" y="74.75" style="fill:#F978F7;" width="5.75" height="5.75"/>
<rect x="57.5" y="80.5" style="fill:#F978F7;" width="5.75" height="5.75"/>
<rect x="63.25" y="80.5" style="fill:#F978F7;" width="5.75" height="5.75"/>
<rect x="69" y="80.5" style="fill:#F978F7;" width="5.75" height="5.75"/>
<rect x="74.75" y="80.5" style="fill:#FEFFFD;" width="5.75" height="5.75"/>
<rect x="46" y="80.5" style="fill:#F978F7;" width="5.75" height="5.75"/>
<rect x="51.75" y="80.5" style="fill:#F978F7;" width="5.75" height="5.75"/>
<rect x="34.5" y="80.5" style="fill:#F978F7;" width="5.75" height="5.75"/>
<rect x="40.25" y="80.5" style="fill:#F978F7;" width="5.75" height="5.75"/>
<rect x="28.75" y="80.5" style="fill:#F978F7;" width="5.75" height="5.75"/>
<rect x="23" y="80.5" style="fill:#F978F7;" width="5.75" height="5.75"/>
<rect x="17.25" y="80.5" style="fill:#FFFEFF;" width="5.75" height="5.75"/>
<rect x="11.5" y="80.5" style="fill:#FFFEFF;" width="5.75" height="5.75"/>
<rect x="5.75" y="80.5" style="fill:#F978F7;" width="5.75" height="5.75"/>
<rect y="80.5" style="fill:#F978F7;" width="5.75" height="5.75"/>
<rect y="86.25" style="fill:#FFFEFF;" width="5.75" height="5.75"/>
<rect x="5.75" y="86.25" style="fill:#F978F7;" width="5.75" height="5.75"/>
<rect x="11.5" y="86.25" style="fill:#F978F7;" width="5.75" height="5.75"/>
<rect x="17.25" y="86.25" style="fill:#FFFEFF;" width="5.75" height="5.75"/>
<rect x="23" y="86.25" style="fill:#FFFEFF;" width="5.75" height="5.75"/>
<rect x="28.75" y="86.25" style="fill:#FFFEFF;" width="5.75" height="5.75"/>
<rect x="34.5" y="86.25" style="fill:#F978F7;" width="5.75" height="5.75"/>
<rect x="40.25" y="86.25" style="fill:#F978F7;" width="5.75" height="5.75"/>
<rect x="46" y="86.25" style="fill:#F978F7;" width="5.75" height="5.75"/>
<rect x="51.75" y="86.25" style="fill:#F978F7;" width="5.75" height="5.75"/>
<rect x="57.5" y="86.25" style="fill:#F978F7;" width="5.75" height="5.75"/>
<rect x="63.25" y="86.25" style="fill:#F978F7;" width="5.75" height="5.75"/>
<rect x="69" y="86.25" style="fill:#F978F7;" width="5.75" height="5.75"/>
<rect x="46" y="92" style="fill:#F978F7;" width="5.75" height="5.75"/>
<rect x="40.25" y="92" style="fill:#FFFFFF;" width="5.75" height="5.75"/>
<rect x="34.5" y="92" style="fill:#FFFFFF;" width="5.75" height="5.75"/>
<rect x="28.75" y="92" style="fill:#FFFFFF;" width="5.75" height="5.75"/>
<rect x="23" y="92" style="fill:#F978F7;" width="5.75" height="5.75"/>
<rect x="17.25" y="92" style="fill:#F978F7;" width="5.75" height="5.75"/>
<rect x="11.5" y="92" style="fill:#F978F7;" width="5.75" height="5.75"/>
<rect x="23" y="97.75" style="fill:#F978F7;" width="5.75" height="5.75"/>
<rect x="28.75" y="97.75" style="fill:#F978F7;" width="5.75" height="5.75"/>
<rect x="34.5" y="97.75" style="fill:#F978F7;" width="5.75" height="5.75"/>
<rect x="40.25" y="97.75" style="fill:#FFFFFF;" width="5.75" height="5.75"/>
<rect x="46" y="97.75" style="fill:#FFFFFF;" width="5.75" height="5.75"/>
<rect x="51.75" y="97.75" style="fill:#FFFFFF;" width="5.75" height="5.75"/>
<rect x="57.5" y="97.75" style="fill:#F978F7;" width="5.75" height="5.75"/>
<rect x="63.25" y="97.75" style="fill:#F978F7;" width="5.75" height="5.75"/>
<rect x="69" y="97.75" style="fill:#F978F7;" width="5.75" height="5.75"/>
<rect x="51.75" y="103.5" style="fill:#FFFFFF;" width="5.75" height="5.75"/>
<rect x="46" y="103.5" style="fill:#F978F7;" width="5.75" height="5.75"/>
<rect x="46" y="109.25" style="fill:#F978F7;" width="5.75" height="5.75"/>
<rect x="40.25" y="109.25" style="fill:#FFFFFF;" width="5.75" height="5.75"/>
<rect x="34.5" y="109.25" style="fill:#FFFFFF;" width="5.75" height="5.75"/>
<rect x="51.75" y="109.25" style="fill:#F978F7;" width="5.75" height="5.75"/>
<rect x="57.5" y="109.25" style="fill:#F978F7;" width="5.75" height="5.75"/>
<rect x="63.25" y="109.25" style="fill:#F978F7;" width="5.75" height="5.75"/>
<rect x="69" y="109.25" style="fill:#F978F7;" width="5.75" height="5.75"/>
<rect x="46" y="115" style="fill:#FFFFFF;" width="5.75" height="5.75"/>
<rect x="51.75" y="115" style="fill:#FFFFFF;" width="5.75" height="5.75"/>
<rect x="51.75" y="120.75" style="fill:#FFA044;" width="5.75" height="5.75"/>
<rect x="57.5" y="115" style="fill:#FFFFFF;" width="5.75" height="5.75"/>
<rect x="63.25" y="115" style="fill:#FFFFFF;" width="5.75" height="5.75"/>
<rect x="69" y="115" style="fill:#FFFFFF;" width="5.75" height="5.75"/>
<rect x="63.25" y="120.75" style="fill:#FFA044;" width="5.75" height="5.75"/>
<rect x="69" y="120.75" style="fill:#FFA044;" width="5.75" height="5.75"/>
<rect x="74.75" y="120.75" style="fill:#FFA044;" width="5.75" height="5.75"/>
<rect x="40.25" y="103.5" style="fill:#F978F7;" width="5.75" height="5.75"/>
<rect x="34.5" y="103.5" style="fill:#F978F7;" width="5.75" height="5.75"/>
<rect x="28.75" y="103.5" style="fill:#FFFFFF;" width="5.75" height="5.75"/>
<rect x="23" y="103.5" style="fill:#FFFFFF;" width="5.75" height="5.75"/>
<rect x="17.25" y="103.5" style="fill:#FFA044;" width="5.75" height="5.75"/>
<rect x="11.5" y="103.5" style="fill:#FFA044;" width="5.75" height="5.75"/>
<rect x="17.25" y="109.25" style="fill:#FFA044;" width="5.75" height="5.75"/>
<rect x="11.5" y="109.25" style="fill:#FFA044;" width="5.75" height="5.75"/>
<rect x="23" y="115" style="fill:#FFA044;" width="5.75" height="5.75"/>
<rect x="17.25" y="115" style="fill:#FFA044;" width="5.75" height="5.75"/>
<rect x="5.75" y="103.5" style="fill:#FFA044;" width="5.75" height="5.75"/>
<rect x="57.5" y="103.5" style="fill:#FFFFFF;" width="5.75" height="5.75"/>
<rect x="63.25" y="103.5" style="fill:#FFFFFF;" width="5.75" height="5.75"/>
<rect x="69" y="103.5" style="fill:#FFFFFF;" width="5.75" height="5.75"/>
<rect x="17.25" y="97.75" style="fill:#F978F7;" width="5.75" height="5.75"/>
<rect x="11.5" y="97.75" style="fill:#F978F7;" width="5.75" height="5.75"/>
<rect x="5.75" y="92" style="fill:#FFFEFF;" width="5.75" height="5.75"/>
<rect x="51.75" y="92" style="fill:#F978F7;" width="5.75" height="5.75"/>
<rect x="57.5" y="92" style="fill:#F978F7;" width="5.75" height="5.75"/>
<rect x="63.25" y="92" style="fill:#F978F7;" width="5.75" height="5.75"/>
<rect x="69" y="92" style="fill:#F978F7;" width="5.75" height="5.75"/>
<rect x="74.75" y="63.25" style="fill:#FEFFFD;" width="5.75" height="5.75"/>
<rect x="46" y="57.5" style="fill:#F978F7;" width="5.75" height="5.75"/>
<rect x="40.25" y="57.5" style="fill:#F978F7;" width="5.75" height="5.75"/>
<rect x="34.5" y="51.75" style="fill:#F978F7;" width="5.75" height="5.75"/>
<rect x="28.75" y="40.25" style="fill:#FFA044;" width="5.75" height="5.75"/>
<rect x="23" y="40.25" style="fill:#FFA044;" width="5.75" height="5.75"/>
<rect x="11.5" y="40.25" style="fill:#FFA044;" width="5.75" height="5.75"/>
<rect x="5.75" y="46" style="fill:#FFA044;" width="5.75" height="5.75"/>
<rect x="17.25" y="40.25" style="fill:#FFA044;" width="5.75" height="5.75"/>
<rect x="17.25" y="46" style="fill:#FFA044;" width="5.75" height="5.75"/>
<rect x="11.5" y="23" style="fill:#FFA044;" width="5.75" height="5.75"/>
<rect x="17.25" y="23" style="fill:#FFA044;" width="5.75" height="5.75"/>
<rect x="5.75" y="17.25" style="fill:#FFA044;" width="5.75" height="5.75"/>
<rect x="11.5" y="17.25" style="fill:#FFA044;" width="5.75" height="5.75"/>
<rect x="69" y="28.75" style="fill:#FFFFFF;" width="5.75" height="5.75"/>
<rect x="69" y="11.5" style="fill:#FFFFFF;" width="5.75" height="5.75"/>
<rect x="63.25" y="11.5" style="fill:#FFFFFF;" width="5.75" height="5.75"/>
<rect x="57.5" y="11.5" style="fill:#FFFFFF;" width="5.75" height="5.75"/>
<rect x="51.75" y="11.5" style="fill:#FFA044;" width="5.75" height="5.75"/>
<rect x="46" y="11.5" style="fill:#FFA044;" width="5.75" height="5.75"/>
<rect x="40.25" y="11.5" style="fill:#FFA044;" width="5.75" height="5.75"/>
<rect x="34.5" y="11.5" style="fill:#FFA044;" width="5.75" height="5.75"/>
<rect x="74.75" y="11.5" style="fill:#FFFFFF;" width="5.75" height="5.75"/>
<rect x="74.75" y="5.75" style="fill:#FFA044;" width="5.75" height="5.75"/>
<rect x="69" y="5.75" style="fill:#FFA044;" width="5.75" height="5.75"/>
<rect x="63.25" y="5.75" style="fill:#FFA044;" width="5.75" height="5.75"/>
<rect x="57.5" y="5.75" style="fill:#FFA044;" width="5.75" height="5.75"/>
<rect x="51.75" y="5.75" style="fill:#FFA044;" width="5.75" height="5.75"/>
<rect x="46" y="5.75" style="fill:#FFA044;" width="5.75" height="5.75"/>
<rect x="40.25" y="5.75" style="fill:#FFA044;" width="5.75" height="5.75"/>
<rect x="74.75" style="fill:#FFA044;" width="5.75" height="5.75"/>
<rect x="69" style="fill:#FFA044;" width="5.75" height="5.75"/>
<rect x="63.25" style="fill:#FFA044;" width="5.75" height="5.75"/>
<rect x="57.5" style="fill:#FFA044;" width="5.75" height="5.75"/>
<rect x="51.75" style="fill:#FFA044;" width="5.75" height="5.75"/>
<rect x="46" style="fill:#FFA044;" width="5.75" height="5.75"/>
<rect x="80.5" y="5.75" style="fill:#FFA044;" width="5.75" height="5.75"/>
<rect x="80.5" y="17.25" style="fill:#FFFFFF;" width="5.75" height="5.75"/>
</svg>
