<?xml version="1.0" encoding="utf-8"?>
<!-- Generator: Adobe Illustrator 16.0.0, SVG Export Plug-In . SVG Version: 6.00 Build 0)  -->
<!DOCTYPE svg PUBLIC "-//W3C//DTD SVG 1.1//EN" "http://www.w3.org/Graphics/SVG/1.1/DTD/svg11.dtd">
<svg version="1.1" xmlns="http://www.w3.org/2000/svg" xmlns:xlink="http://www.w3.org/1999/xlink" x="0px" y="0px" width="72px"
	 height="72px" viewBox="0 0 72 72" enable-background="new 0 0 72 72" xml:space="preserve">
<g id="Barrel">
	<circle fill="#F96E00" stroke="#FFD6AA" stroke-width="2" stroke-miterlimit="10" cx="36.394" cy="36.068" r="33.428"/>
</g>
<g id="Logo">
	<path fill="#2428DC" d="M53.295,36.487c-1.095-1.101-3.191-1.328-4.932-1.299c-0.241-1.315-0.689-2.557-1.318-3.687
		c1.001-0.128,5.709-0.842,6.968-3.148c1.409-2.584,3.832-6.923,1.879-7.4c-1.762-0.431-1.175,5.129-3.994,6.539
		c-2.296,1.148-5.241,1.803-6.254,2.007c-2.22-2.582-5.502-4.223-9.173-4.223c-3.574,0-6.777,1.559-8.992,4.023
		c-1.355-0.315-3.543-0.91-5.339-1.808c-2.819-1.409-2.232-6.969-3.994-6.539c-1.953,0.477,0.47,4.816,1.88,7.4
		c1.004,1.84,4.204,2.666,5.967,2.989c-0.661,1.146-1.142,2.407-1.399,3.751c-1.744,0.035-3.841,0.337-4.898,1.482
		c-1.997,2.165-5.403,5.782-3.625,6.72c1.604,0.847,2.388-4.688,5.466-5.369c0.92-0.204,1.909-0.319,2.843-0.385
		c0.021,1.486,0.313,2.905,0.823,4.217c-1.725,0.304-5.085,1.124-6.118,3.018c-1.41,2.584-3.833,6.923-1.88,7.399
		c1.763,0.431,1.175-5.129,3.994-6.538c1.688-0.845,3.722-1.42,5.086-1.748c2.151,3.355,5.903,5.584,10.185,5.584
		c4.209,0,7.913-2.151,10.081-5.413c1.308,0.342,2.981,0.865,4.405,1.577c2.82,1.409,2.232,6.969,3.994,6.538
		c1.953-0.477-0.469-4.815-1.879-7.399c-0.901-1.653-3.572-2.485-5.386-2.874c0.535-1.327,0.841-2.77,0.871-4.28
		c0.963,0.029,1.991,0.107,2.949,0.283c3.102,0.564,4.091,6.066,5.662,5.161C58.911,42.062,55.372,38.574,53.295,36.487z
		 M31.851,34.243c0-0.692,0.561-1.253,1.253-1.253c0.692,0,1.253,0.561,1.253,1.253c0,0.692-0.561,1.252-1.253,1.252
		C32.412,35.495,31.851,34.935,31.851,34.243z M36.393,43.718c-1.667,0-3.015-1.349-3.015-3.015c0-1.665,1.348-3.016,3.015-3.016
		c1.665,0,3.014,1.351,3.014,3.016C39.407,42.369,38.058,43.718,36.393,43.718z M39.682,35.495c-0.693,0-1.253-0.561-1.253-1.252
		c0-0.692,0.56-1.253,1.253-1.253c0.692,0,1.252,0.561,1.252,1.253C40.934,34.935,40.374,35.495,39.682,35.495z"/>
</g>
</svg>
